<?xml version="1.0" encoding="utf-8"?>
<svg version="1.1" xmlns:xlink="http://www.w3.org/1999/xlink" width="15px" height="15px" xmlns="http://www.w3.org/2000/svg">
  <g transform="matrix(1 0 0 1 -605 -716 )">
    <path d="M 13.333333333333332 7.5  L 13.333333333333332 13.333333333333332  L 1.6666666666666665 13.333333333333332  L 1.6666666666666665 1.6666666666666665  L 7.5 1.6666666666666665  L 7.5 0  L 1.6666666666666665 0  C 0.7458333333333333 0  0 0.7458333333333333  0 1.6666666666666665  L 0 13.333333333333332  C 0 14.254166666666666  0.7458333333333333 15  1.6666666666666665 15  L 13.333333333333332 15  C 14.254166666666666 15  15 14.254166666666666  15 13.333333333333332  L 15 7.5  L 13.333333333333332 7.5  Z M 15 0  L 9.166666666666668 0  L 9.166666666666668 1.6666666666666665  L 12.154166666666669 1.6666666666666665  L 3.9625 9.858333333333334  L 5.141666666666667 11.0375  L 13.333333333333332 2.8458333333333337  L 13.333333333333332 5.833333333333333  L 15 5.833333333333333  L 15 0  Z " fill-rule="nonzero" fill="#000000" stroke="none" transform="matrix(1 0 0 1 605 716 )" />
  </g>
</svg>