<?xml version="1.0" encoding="utf-8"?>
<svg version="1.1" xmlns:xlink="http://www.w3.org/1999/xlink" width="16px" height="16px" xmlns="http://www.w3.org/2000/svg">
  <g transform="matrix(1 0 0 1 -25 -87 )">
    <path d="M 4 4  C 4 6.205  5.789999999999999 8  8 8  C 10.21 8  12 6.205  12 4  C 12 1.79  10.21 0  8 0  C 5.789999999999999 0  4 1.79  4 4  Z M 16 14  C 16 11.335  10.665 10  8 10  C 5.335000000000001 10  0 11.335  0 14  L 0 16  L 16 16  L 16 14  Z " fill-rule="nonzero" fill="#000000" stroke="none" transform="matrix(1 0 0 1 25 87 )" />
  </g>
</svg>