<?xml version="1.0" encoding="utf-8"?>
<svg version="1.1" xmlns:xlink="http://www.w3.org/1999/xlink" width="18px" height="22px" xmlns="http://www.w3.org/2000/svg">
  <g transform="matrix(1 0 0 1 -8 -10 )">
    <path d="M 6.75 19.743589743589745  C 6.75 20.99025641025641  7.756874999999999 22  9 22  C 10.243125000000001 22  11.25 20.99025641025641  11.25 19.743589743589745  L 6.75 19.743589743589745  Z M 18 17.487179487179485  L 15.75 15.23076923076923  L 15.75 9.58974358974359  C 15.75 6.120512820512821  13.910624999999998 3.2266666666666675  10.6875 2.459487179487179  L 10.6875 1.6923076923076925  C 10.6875 0.7558974358974359  9.93375 0  9 0  C 8.06625 0  7.3125 0.7558974358974359  7.3125 1.6923076923076925  L 7.3125 2.459487179487179  C 4.0893749999999995 3.226666666666666  2.25 6.120512820512821  2.25 9.58974358974359  L 2.25 15.23076923076923  L 0 17.487179487179485  L 0 18.615384615384617  L 18 18.615384615384617  L 18 17.487179487179485  Z M 13.5 9.58974358974359  L 13.5 16.358974358974358  L 4.5 16.358974358974358  L 4.5 9.58974358974359  C 4.5 6.786153846153847  6.204375000000001 4.512820512820513  9 4.512820512820513  C 11.795625 4.512820512820513  13.5 6.786153846153847  13.5 9.58974358974359  Z " fill-rule="nonzero" fill="#333333" stroke="none" transform="matrix(1 0 0 1 8 10 )" />
  </g>
</svg>