<?xml version="1.0" encoding="utf-8"?>
<svg version="1.1" xmlns:xlink="http://www.w3.org/1999/xlink" width="13px" height="13px" viewBox="325 163  13 13" xmlns="http://www.w3.org/2000/svg">
  <path d="M 325.5 166  A 2.5 2.5 0 0 1 328 163.5 L 335 163.5  A 2.5 2.5 0 0 1 337.5 166 L 337.5 173  A 2.5 2.5 0 0 1 335 175.5 L 328 175.5  A 2.5 2.5 0 0 1 325.5 173 L 325.5 166  Z " fill-rule="nonzero" fill="#f0f0f0" stroke="none" />
  <path d="M 325.5 166  A 2.5 2.5 0 0 1 328 163.5 L 335 163.5  A 2.5 2.5 0 0 1 337.5 166 L 337.5 173  A 2.5 2.5 0 0 1 335 175.5 L 328 175.5  A 2.5 2.5 0 0 1 325.5 173 L 325.5 166  Z " stroke-width="1" stroke="#cccccc" fill="none" />
</svg>