<?xml version="1.0" encoding="utf-8"?>
<svg version="1.1" xmlns:xlink="http://www.w3.org/1999/xlink" width="326px" height="73px" xmlns="http://www.w3.org/2000/svg">
  <g transform="matrix(1 0 0 1 0 -26 )">
    <path d="M 1 29  A 2 2 0 0 1 2.9999999999999996 27 L 323 27  A 2 2 0 0 1 325 29 L 325 96  A 2 2 0 0 1 323 98 L 3 98  A 2 2 0 0 1 1 96 L 1 29  Z " fill-rule="nonzero" fill="#ffffff" stroke="none" />
    <path d="M 0.5 29  A 2.5 2.5 0 0 1 2.9999999999999996 26.5 L 323 26.5  A 2.5 2.5 0 0 1 325.5 29 L 325.5 96  A 2.5 2.5 0 0 1 323 98.5 L 3 98.5  A 2.5 2.5 0 0 1 0.5 96 L 0.5 29  Z " stroke-width="1" stroke-dasharray="9,4" stroke="#797979" fill="none" stroke-opacity="0.9607843137254902" stroke-dashoffset="0.5" />
  </g>
</svg>