<?xml version="1.0" encoding="utf-8"?>
<svg version="1.1" xmlns:xlink="http://www.w3.org/1999/xlink" width="14px" height="14px" xmlns="http://www.w3.org/2000/svg">
  <defs>
    <mask fill="white" id="clip42">
      <path d="M 9.545454545454545 7  C 9.545454545454545 5.593636363636363  8.406363636363636 4.454545454545454  7 4.454545454545454  C 5.593636363636363 4.454545454545454  4.454545454545454 5.593636363636363  4.454545454545454 7  C 4.454545454545454 8.406363636363636  5.593636363636363 9.545454545454545  7 9.545454545454545  C 8.406363636363636 9.545454545454545  9.545454545454545 8.406363636363636  9.545454545454545 7  Z M 14 6.363636363636363  L 12.689090909090908 6.363636363636363  C 12.396363636363636 3.71  10.290000000000001 1.6036363636363637  7.636363636363636 1.310909090909091  L 7.636363636363636 0  L 6.363636363636363 0  L 6.363636363636363 1.310909090909091  C 3.71 1.6036363636363637  1.6036363636363637 3.71  1.310909090909091 6.363636363636363  L 0 6.363636363636363  L 0 7.636363636363636  L 1.310909090909091 7.636363636363636  C 1.6036363636363637 10.290000000000001  3.71 12.396363636363636  6.363636363636363 12.68909090909091  L 6.363636363636363 14  L 7.636363636363636 14  L 7.636363636363636 12.68909090909091  C 10.290000000000001 12.396363636363636  12.396363636363636 10.290000000000001  12.68909090909091 7.636363636363636  L 14 7.636363636363636  L 14 6.363636363636363  Z M 11.454545454545455 7  C 11.454545454545455 9.459545454545454  9.459545454545454 11.454545454545455  7 11.454545454545455  C 4.540454545454545 11.454545454545455  2.5454545454545454 9.459545454545454  2.5454545454545454 7  C 2.5454545454545454 4.540454545454545  4.540454545454545 2.5454545454545454  7 2.5454545454545454  C 9.459545454545454 2.5454545454545454  11.454545454545455 4.540454545454545  11.454545454545455 7  Z " fill-rule="evenodd" />
    </mask>
  </defs>
  <g transform="matrix(1 0 0 1 -255 -40 )">
    <path d="M 9.545454545454545 7  C 9.545454545454545 5.593636363636363  8.406363636363636 4.454545454545454  7 4.454545454545454  C 5.593636363636363 4.454545454545454  4.454545454545454 5.593636363636363  4.454545454545454 7  C 4.454545454545454 8.406363636363636  5.593636363636363 9.545454545454545  7 9.545454545454545  C 8.406363636363636 9.545454545454545  9.545454545454545 8.406363636363636  9.545454545454545 7  Z M 14 6.363636363636363  L 12.689090909090908 6.363636363636363  C 12.396363636363636 3.71  10.290000000000001 1.6036363636363637  7.636363636363636 1.310909090909091  L 7.636363636363636 0  L 6.363636363636363 0  L 6.363636363636363 1.310909090909091  C 3.71 1.6036363636363637  1.6036363636363637 3.71  1.310909090909091 6.363636363636363  L 0 6.363636363636363  L 0 7.636363636363636  L 1.310909090909091 7.636363636363636  C 1.6036363636363637 10.290000000000001  3.71 12.396363636363636  6.363636363636363 12.68909090909091  L 6.363636363636363 14  L 7.636363636363636 14  L 7.636363636363636 12.68909090909091  C 10.290000000000001 12.396363636363636  12.396363636363636 10.290000000000001  12.68909090909091 7.636363636363636  L 14 7.636363636363636  L 14 6.363636363636363  Z M 11.454545454545455 7  C 11.454545454545455 9.459545454545454  9.459545454545454 11.454545454545455  7 11.454545454545455  C 4.540454545454545 11.454545454545455  2.5454545454545454 9.459545454545454  2.5454545454545454 7  C 2.5454545454545454 4.540454545454545  4.540454545454545 2.5454545454545454  7 2.5454545454545454  C 9.459545454545454 2.5454545454545454  11.454545454545455 4.540454545454545  11.454545454545455 7  Z " fill-rule="nonzero" fill="#f0f0f0" stroke="none" transform="matrix(1 0 0 1 255 40 )" />
    <path d="M 9.545454545454545 7  C 9.545454545454545 5.593636363636363  8.406363636363636 4.454545454545454  7 4.454545454545454  C 5.593636363636363 4.454545454545454  4.454545454545454 5.593636363636363  4.454545454545454 7  C 4.454545454545454 8.406363636363636  5.593636363636363 9.545454545454545  7 9.545454545454545  C 8.406363636363636 9.545454545454545  9.545454545454545 8.406363636363636  9.545454545454545 7  Z " stroke-width="2" stroke="#cccccc" fill="none" transform="matrix(1 0 0 1 255 40 )" mask="url(#clip42)" />
    <path d="M 14 6.363636363636363  L 12.689090909090908 6.363636363636363  C 12.396363636363636 3.71  10.290000000000001 1.6036363636363637  7.636363636363636 1.310909090909091  L 7.636363636363636 0  L 6.363636363636363 0  L 6.363636363636363 1.310909090909091  C 3.71 1.6036363636363637  1.6036363636363637 3.71  1.310909090909091 6.363636363636363  L 0 6.363636363636363  L 0 7.636363636363636  L 1.310909090909091 7.636363636363636  C 1.6036363636363637 10.290000000000001  3.71 12.396363636363636  6.363636363636363 12.68909090909091  L 6.363636363636363 14  L 7.636363636363636 14  L 7.636363636363636 12.68909090909091  C 10.290000000000001 12.396363636363636  12.396363636363636 10.290000000000001  12.68909090909091 7.636363636363636  L 14 7.636363636363636  L 14 6.363636363636363  Z " stroke-width="2" stroke="#cccccc" fill="none" transform="matrix(1 0 0 1 255 40 )" mask="url(#clip42)" />
    <path d="M 11.454545454545455 7  C 11.454545454545455 9.459545454545454  9.459545454545454 11.454545454545455  7 11.454545454545455  C 4.540454545454545 11.454545454545455  2.5454545454545454 9.459545454545454  2.5454545454545454 7  C 2.5454545454545454 4.540454545454545  4.540454545454545 2.5454545454545454  7 2.5454545454545454  C 9.459545454545454 2.5454545454545454  11.454545454545455 4.540454545454545  11.454545454545455 7  Z " stroke-width="2" stroke="#cccccc" fill="none" transform="matrix(1 0 0 1 255 40 )" mask="url(#clip42)" />
  </g>
</svg>