<?xml version="1.0" encoding="utf-8"?>
<svg version="1.1" xmlns:xlink="http://www.w3.org/1999/xlink" width="16px" height="16px" xmlns="http://www.w3.org/2000/svg">
  <g transform="matrix(1 0 0 1 -1366 -241 )">
    <path d="M 16 14.63693539165237  L 11.435105774728418 10.062893081761004  L 10.70783304745569 10.062893081761004  L 10.456260720411665 9.81132075471698  C 11.352773013150374 8.773013150371641  11.892510005717554 7.4236706689536875  11.892510005717554 5.946255002858776  C 11.892510005717554 2.662092624356775  9.230417381360777 0  5.946255002858777 0  C 2.6620926243567755 0  0 2.662092624356775  0 5.946255002858776  C 0 9.230417381360775  2.6620926243567755 11.892510005717552  5.946255002858777 11.892510005717552  C 7.423670668953689 11.892510005717552  8.773013150371643 11.35277301315037  9.811320754716983 10.460834762721554  L 10.062893081761008 10.712407089765579  L 10.062893081761008 11.435105774728415  L 14.636935391652374 16  L 16 14.63693539165237  Z M 10.062893081761008 5.946255002858776  C 10.062893081761008 8.219554030874784  8.219554030874786 10.062893081761004  5.946255002858777 10.062893081761004  C 3.6729559748427683 10.062893081761004  1.8296169239565467 8.219554030874784  1.8296169239565467 5.946255002858776  C 1.8296169239565467 3.6729559748427674  3.6729559748427683 1.8296169239565463  5.946255002858777 1.8296169239565463  C 8.219554030874786 1.8296169239565463  10.062893081761008 3.6729559748427674  10.062893081761008 5.946255002858776  Z " fill-rule="nonzero" fill="#ffffff" stroke="none" transform="matrix(1 0 0 1 1366 241 )" />
  </g>
</svg>