<?xml version="1.0" encoding="utf-8"?>
<svg version="1.1" xmlns:xlink="http://www.w3.org/1999/xlink" width="14px" height="11px" xmlns="http://www.w3.org/2000/svg">
  <g transform="matrix(1 0 0 1 -976 -4 )">
    <path d="M 14 5.00061  C 14 4.3149  11.592 0.000610352  7 0.000610352  C 2.4073 0.000610352  0 4.3149  0 5.00061  C 0 5.684540000000001  2.4073 10.0006  7 10.0006  C 11.592 10.0006  14 5.684540000000001  14 5.00061  Z M 10.1108 5.00061  C 10.1108 7.12472  8.7185 8.84614  7 8.84614  C 5.2815 8.84614  3.8885 7.12472  3.8885 5.00061  C 3.8885 2.8765  5.2815 1.15329  7 1.15329  C 8.7185 1.15329  10.1108 2.8765  10.1108 5.00061  Z M 8.5561 5.00061  C 8.5561 4.51222  7.2421999999999995 5.339  7 5.00061  C 6.7151 4.6015  7.4641 3.0774000000000004  7 3.0774000000000004  C 6.1404 3.0774000000000004  5.4439 3.9389999999999996  5.4439 5.00061  C 5.4439 6.06222  6.1404 6.923819999999999  7 6.923819999999999  C 7.8589 6.923819999999999  8.5561 6.06222  8.5561 5.00061  Z " fill-rule="nonzero" fill="#98a2b2" stroke="none" transform="matrix(1 0 0 1 976 4 )" />
  </g>
</svg>