<?xml version="1.0" encoding="utf-8"?>
<svg version="1.1" xmlns:xlink="http://www.w3.org/1999/xlink" width="14px" height="15px" xmlns="http://www.w3.org/2000/svg">
  <g transform="matrix(1 0 0 1 -950 -2 )">
    <path d="M 7.584007898118484 11.084300000077631  L 6.4172382214846575 11.084300000077631  L 6.4172382214846575 11.667700000066064  C 6.4172382214846575 11.822400000062997  6.355778238518079 11.970800000060056  6.246368268840673 12.080200000057888  C 6.136968299160496 12.189600000055718  5.988578340286259 12.251100000054498  5.833858383166359 12.251100000054498  L 4.6670887065325335 12.251100000054498  L 4.6670887065325335 12.834500000042933  C 4.6670887065325335 13.143900000036798  4.544158740602147 13.440700000030914  4.325348801244564 13.659500000026576  C 4.106528861889752 13.878300000022238  3.8097589441385065 14.0013000000198  3.5003090299014783 14.0013000000198  L 1.1667696766338262 14.0013000000198  C 0.8573237623956893 14.0013000000198  0.5605518446449982 13.878300000022238  0.3417389052882463 13.659500000026576  C 0.12292696593121724 13.440700000030914  0 13.143900000036798  0 12.834500000042933  L 0 11.32590000007284  C 6.608288168535828E-05 11.016400000078978  0.12303696590073113 10.719700000084858  0.341863905253603 10.500900000089198  L 4.856098654149081 5.986120000178705  C 4.579118730913107 5.046050000197343  4.6050987237128425 4.042630000217236  4.9303586335681855 3.1181500002355644  C 5.255618543423528 2.1936700002538925  5.863648374910166 1.395030000269726  6.668238151920898 0.8354820002808194  C 7.472827928931627 0.27593300029191276  8.433147662782341 -0.016135799702296758  9.413027391212069 0.0006880742973696987  C 10.392897119644568 0.017511900297036156  11.342596856438574 0.34237500029059553  12.127596638878604 0.9292150002789611  C 12.912496421346349 1.516050000267327  13.492696260545975 2.335090000251089  13.785996179258916 3.2701900002325504  C 14.079396097944148 4.205300000214011  14.070896100299892 5.209010000194112  13.761796185965862 6.139030000175674  C 13.452696271631833 7.069040000157235  12.85869643625683 7.878150000141194  12.06399665650512 8.451650000129826  C 11.269296876753412 9.025140000118455  10.314197141455994 9.333910000112335  9.334167413067838 9.334170000112328  L 8.167397736434012 9.334170000112328  L 8.167397736434012 10.500900000089198  C 8.167397736434012 10.655700000086128  8.105937753467433 10.804100000083187  7.996527783790027 10.913500000081017  C 7.887127814109849 11.022900000078849  7.7387378552356125 11.084300000077631  7.584007898118484 11.084300000077631  Z M 9.675907318355808 4.325350000211631  C 9.89471725771339 4.544160000207293  10.191497175461866 4.667090000204856  10.50089708971275 4.667090000204856  C 10.81039700393592 4.667090000204856  11.107196921678852 4.544160000207293  11.325996861039208 4.325350000211631  C 11.544796800399562 4.10653000021597  11.667696766338262 3.8097600002218526  11.667696766338262 3.5003100002279877  C 11.667696766338262 3.1908700002341224  11.544796800399562 2.894090000240006  11.325996861039208 2.6752800002443444  C 11.107196921678852 2.4564700002486823  10.81039700393592 2.33354000025112  10.50089708971275 2.33354000025112  C 10.191497175461866 2.33354000025112  9.89471725771339 2.4564700002486823  9.675907318355808 2.6752800002443444  C 9.457097378998224 2.894090000240006  9.334167413067838 3.1908700002341224  9.334167413067838 3.5003100002279877  C 9.334167413067838 3.8097600002218526  9.457097378998224 4.10653000021597  9.675907318355808 4.325350000211631  Z " fill-rule="nonzero" fill="#98a2b2" stroke="none" transform="matrix(1 0 0 1 950 2 )" />
  </g>
</svg>