<?xml version="1.0" encoding="utf-8"?>
<svg version="1.1" xmlns:xlink="http://www.w3.org/1999/xlink" width="13px" height="13px" viewBox="225 352  13 13" xmlns="http://www.w3.org/2000/svg">
  <path d="M 225.5 355  A 2.5 2.5 0 0 1 228 352.5 L 235 352.5  A 2.5 2.5 0 0 1 237.5 355 L 237.5 362  A 2.5 2.5 0 0 1 235 364.5 L 228 364.5  A 2.5 2.5 0 0 1 225.5 362 L 225.5 355  Z " fill-rule="nonzero" fill="#f0f0f0" stroke="none" />
  <path d="M 225.5 355  A 2.5 2.5 0 0 1 228 352.5 L 235 352.5  A 2.5 2.5 0 0 1 237.5 355 L 237.5 362  A 2.5 2.5 0 0 1 235 364.5 L 228 364.5  A 2.5 2.5 0 0 1 225.5 362 L 225.5 355  Z " stroke-width="1" stroke="#cccccc" fill="none" />
  <path d="M 227.78571428571428 358.5  L 230.57142857142858 361.2857142857143  L 235.21428571428572 354.7857142857143  " stroke-width="2.7857142857142856" stroke="#cccccc" fill="none" />
</svg>