<?xml version="1.0" encoding="utf-8"?>
<svg version="1.1" xmlns:xlink="http://www.w3.org/1999/xlink" width="11px" height="16px" xmlns="http://www.w3.org/2000/svg">
  <g transform="matrix(1 0 0 1 -457 -582 )">
    <path d="M 11 5.6  C 11 2.508  8.536785714285715 0  5.5 0  C 2.463214285714286 0  0 2.508  0 5.6  C 0 9.8  5.5 16  5.5 16  C 5.5 16  11 9.8  11 5.6  Z M 7.464285714285714 5.6  C 7.464285714285714 6.703999999999999  6.584285714285714 7.6  5.5 7.6  C 4.415714285714286 7.6  3.535714285714286 6.703999999999999  3.535714285714286 5.6  C 3.535714285714286 4.496  4.415714285714286 3.6  5.5 3.6  C 6.584285714285714 3.6  7.464285714285714 4.496  7.464285714285714 5.6  Z " fill-rule="nonzero" fill="#000000" stroke="none" transform="matrix(1 0 0 1 457 582 )" />
  </g>
</svg>