<?xml version="1.0" encoding="utf-8"?>
<svg version="1.1" xmlns:xlink="http://www.w3.org/1999/xlink" width="8px" height="8px" xmlns="http://www.w3.org/2000/svg">
  <g transform="matrix(1 0 0 1 -634 -371 )">
    <path d="M 7.111111111111111 4  L 7.111111111111111 7.111111111111111  L 0.8888888888888888 7.111111111111111  L 0.8888888888888888 0.8888888888888888  L 4 0.8888888888888888  L 4 0  L 0.8888888888888888 0  C 0.3977777777777778 0  0 0.3977777777777778  0 0.8888888888888888  L 0 7.111111111111111  C 0 7.602222222222222  0.3977777777777778 8  0.8888888888888888 8  L 7.111111111111111 8  C 7.602222222222222 8  8 7.602222222222222  8 7.111111111111111  L 8 4  L 7.111111111111111 4  Z M 8 0  L 4.888888888888889 0  L 4.888888888888889 0.8888888888888888  L 6.482222222222223 0.8888888888888888  L 2.1133333333333333 5.257777777777778  L 2.7422222222222223 5.886666666666667  L 7.111111111111111 1.517777777777778  L 7.111111111111111 3.111111111111111  L 8 3.111111111111111  L 8 0  Z " fill-rule="nonzero" fill="#000000" stroke="none" transform="matrix(1 0 0 1 634 371 )" />
  </g>
</svg>