<?xml version="1.0" encoding="utf-8"?>
<svg version="1.1" xmlns:xlink="http://www.w3.org/1999/xlink" width="414px" height="170px" xmlns="http://www.w3.org/2000/svg">
  <defs>
    <mask fill="white" id="clip11">
      <path d="M 436 340  C 434.335 340  433 338.665  433 337  L 433 170  L 847 170  L 847 337  C 847 338.665  845.665 340  844 340  " fill-rule="evenodd" />
    </mask>
  </defs>
  <g transform="matrix(1 0 0 1 -433 -170 )">
    <path d="M 433 170  L 847 170  L 847 340  L 433 340  L 433 170  " fill-rule="nonzero" fill="#cccccc" stroke="none" mask="url(#clip11)" />
    <path d="M 445 182  L 835 182  L 835 328  L 445 328  L 445 182  " fill-rule="nonzero" fill="#ffffff" stroke="none" mask="url(#clip11)" />
    <path d="M 661.03 221  C 653.89 221  648.28 215.39  648.28 208.25  C 648.28 201.11  653.89 195.5  661.03 195.5  C 668.17 195.5  673.78 201.11  673.78 208.25  C 673.78 215.39  668.17 221  661.03 221  " fill-rule="nonzero" fill="#cccccc" stroke="none" mask="url(#clip11)" />
    <path d="M 450 324  L 450 248.64999999999998  L 545.25 214.39999999999998  L 678.6 290.2463768115942  L 754.8 234.95  L 831 290.2463768115942  L 831 324  L 450 324  " fill-rule="nonzero" fill="#169bd5" stroke="none" mask="url(#clip11)" />
  </g>
</svg>