<?xml version="1.0" encoding="utf-8"?>
<svg version="1.1" xmlns:xlink="http://www.w3.org/1999/xlink" width="325px" height="170px" xmlns="http://www.w3.org/2000/svg">
  <defs>
    <mask fill="white" id="clip15">
      <path d="M 27 475  C 25.335 475  24 473.665  24 472  L 24 305  L 349 305  L 349 472  C 349 473.665  347.665 475  346 475  " fill-rule="evenodd" />
    </mask>
  </defs>
  <g transform="matrix(1 0 0 1 -24 -305 )">
    <path d="M 24 305  L 349 305  L 349 475  L 24 475  L 24 305  " fill-rule="nonzero" fill="#cccccc" stroke="none" mask="url(#clip15)" />
    <path d="M 36 317  L 337 317  L 337 463  L 36 463  L 36 317  " fill-rule="nonzero" fill="#ffffff" stroke="none" mask="url(#clip15)" />
    <path d="M 205.75 356  C 198.61 356  193 350.39  193 343.25  C 193 336.11  198.61 330.5  205.75 330.5  C 212.89 330.5  218.5 336.11  218.5 343.25  C 218.5 350.39  212.89 356  205.75 356  " fill-rule="nonzero" fill="#cccccc" stroke="none" mask="url(#clip15)" />
    <path d="M 41 459  L 41 383.65  L 114 349.4  L 216.2 416.00307692307695  L 274.6 369.95  L 333 416.00307692307695  L 333 459  L 41 459  " fill-rule="nonzero" fill="#169bd5" stroke="none" mask="url(#clip15)" />
  </g>
</svg>