<?xml version="1.0" encoding="utf-8"?>
<svg version="1.1" xmlns:xlink="http://www.w3.org/1999/xlink" width="7px" height="16px" xmlns="http://www.w3.org/2000/svg">
  <g transform="matrix(1 0 0 1 -398 -603 )">
    <path d="M 7 3.6363636363636362  L 6.045454545454546 3.6363636363636362  L 6.045454545454546 12  C 6.045454545454546 13.607272727272727  4.906363636363637 14.909090909090908  3.5 14.909090909090908  C 2.0936363636363633 14.909090909090908  0.9545454545454545 13.607272727272727  0.9545454545454545 12  L 0.9545454545454545 2.909090909090909  C 0.9545454545454545 1.9054545454545455  1.667272727272728 1.0909090909090908  2.5454545454545454 1.0909090909090908  C 3.423636363636363 1.0909090909090908  4.136363636363637 1.9054545454545455  4.136363636363637 2.909090909090909  L 4.136363636363637 10.545454545454545  C 4.136363636363637 10.945454545454545  3.853181818181818 11.272727272727273  3.5 11.272727272727273  C 3.146818181818182 11.272727272727273  2.8636363636363638 10.945454545454545  2.8636363636363638 10.545454545454545  L 2.8636363636363638 3.6363636363636362  L 1.909090909090909 3.6363636363636362  L 1.909090909090909 10.545454545454545  C 1.909090909090909 11.549090909090909  2.6218181818181825 12.363636363636363  3.5 12.363636363636363  C 4.378181818181818 12.363636363636363  5.090909090909091 11.549090909090909  5.090909090909091 10.545454545454545  L 5.090909090909091 2.909090909090909  C 5.090909090909091 1.3018181818181818  3.951818181818182 0  2.5454545454545454 0  C 1.1390909090909085 0  0 1.3018181818181818  0 2.909090909090909  L 0 12  C 0 14.210909090909091  1.5686363636363636 16  3.5 16  C 5.431363636363637 16  7 14.210909090909091  7 12  L 7 3.6363636363636362  Z " fill-rule="nonzero" fill="#000000" stroke="none" transform="matrix(1 0 0 1 398 603 )" />
  </g>
</svg>