<?xml version="1.0" encoding="utf-8"?>
<svg version="1.1" xmlns:xlink="http://www.w3.org/1999/xlink" width="12px" height="12px" xmlns="http://www.w3.org/2000/svg">
  <g transform="matrix(1 0 0 1 -1214 -178 )">
    <path d="M 8.936170212765957 3  C 8.936170212765957 4.68  7.64425531914895 6  6 6  C 4.35574468085105 6  3.0638297872340425 4.68  3.0638297872340425 3  C 3.0638297872340425 1.3200000000000007  4.35574468085105 0  6 0  C 7.64425531914895 0  8.936170212765957 1.3200000000000007  8.936170212765957 3  Z M 0 12  L 11.88394584139264 12  L 11.88394584139264 10.489702517162474  C 11.88394584139264 8.481006864988558  7.925106382978714 7.469107551487415  5.94197292069632 7.469107551487415  C 3.9588394584139253 7.469107551487415  0 8.481006864988558  0 10.489702517162474  L 0 12  Z " fill-rule="nonzero" fill="#333333" stroke="none" transform="matrix(1 0 0 1 1214 178 )" />
  </g>
</svg>