<?xml version="1.0" encoding="utf-8"?>
<svg version="1.1" xmlns:xlink="http://www.w3.org/1999/xlink" width="57px" height="57px" xmlns="http://www.w3.org/2000/svg">
  <g transform="matrix(1 0 0 1 -398 -642 )">
    <path d="M 398 642  L 455 642  L 455 699  L 398 699  L 398 642  " fill-rule="nonzero" fill="#cccccc" stroke="none" />
    <path d="M 402 646  L 451 646  L 451 695  L 402 695  L 402 646  " fill-rule="nonzero" fill="#ffffff" stroke="none" />
    <path d="M 431.91499999999996 659.0999999999999  C 429.52099999999996 659.0999999999999  427.64 657.2189999999999  427.64 654.8249999999999  C 427.64 652.4309999999999  429.52099999999996 650.55  431.91499999999996 650.55  C 434.30899999999997 650.55  436.19 652.4309999999999  436.19 654.8249999999999  C 436.19 657.2189999999999  434.30899999999997 659.0999999999999  431.91499999999996 659.0999999999999  " fill-rule="nonzero" fill="#cccccc" stroke="none" />
    <path d="M 404 694  L 404 668.7  L 415.5 657.2  L 431.6 666.4  L 440.8 664.1  L 450 666.4  L 450 694  L 404 694  " fill-rule="nonzero" fill="#169bd5" stroke="none" />
  </g>
</svg>