<?xml version="1.0" encoding="utf-8"?>
<svg version="1.1" xmlns:xlink="http://www.w3.org/1999/xlink" width="13px" height="13px" viewBox="518 1267  13 13" xmlns="http://www.w3.org/2000/svg">
  <path d="M 524.5 1267  C 528.14 1267  531 1269.86  531 1273.5  C 531 1277.14  528.14 1280  524.5 1280  C 520.86 1280  518 1277.14  518 1273.5  C 518 1269.86  520.86 1267  524.5 1267  Z " fill-rule="nonzero" fill="#ffffff" stroke="none" />
  <path d="M 524.5 1267.5  C 527.86 1267.5  530.5 1270.14  530.5 1273.5  C 530.5 1276.86  527.86 1279.5  524.5 1279.5  C 521.14 1279.5  518.5 1276.86  518.5 1273.5  C 518.5 1270.14  521.14 1267.5  524.5 1267.5  Z " stroke-width="1" stroke="#797979" fill="none" />
  <path d="M 524.5 1276.75  C 522.68 1276.75  521.25 1275.32  521.25 1273.5  C 521.25 1271.68  522.68 1270.25  524.5 1270.25  C 526.32 1270.25  527.75 1271.68  527.75 1273.5  C 527.75 1275.32  526.32 1276.75  524.5 1276.75  " fill-rule="nonzero" fill="#797979" stroke="none" />
</svg>