<?xml version="1.0" encoding="utf-8"?>
<svg version="1.1" xmlns:xlink="http://www.w3.org/1999/xlink" width="13px" height="13px" viewBox="736 1267  13 13" xmlns="http://www.w3.org/2000/svg">
  <path d="M 742.5 1267  C 746.14 1267  749 1269.86  749 1273.5  C 749 1277.14  746.14 1280  742.5 1280  C 738.86 1280  736 1277.14  736 1273.5  C 736 1269.86  738.86 1267  742.5 1267  Z " fill-rule="nonzero" fill="#ffffff" stroke="none" />
  <path d="M 742.5 1267.5  C 745.86 1267.5  748.5 1270.14  748.5 1273.5  C 748.5 1276.86  745.86 1279.5  742.5 1279.5  C 739.14 1279.5  736.5 1276.86  736.5 1273.5  C 736.5 1270.14  739.14 1267.5  742.5 1267.5  Z " stroke-width="1" stroke="#797979" fill="none" />
  <path d="M 742.5 1276.75  C 740.68 1276.75  739.25 1275.32  739.25 1273.5  C 739.25 1271.68  740.68 1270.25  742.5 1270.25  C 744.32 1270.25  745.75 1271.68  745.75 1273.5  C 745.75 1275.32  744.32 1276.75  742.5 1276.75  " fill-rule="nonzero" fill="#797979" stroke="none" />
</svg>