<?xml version="1.0" encoding="utf-8"?>
<svg version="1.1" xmlns:xlink="http://www.w3.org/1999/xlink" width="57px" height="57px" xmlns="http://www.w3.org/2000/svg">
  <g transform="matrix(1 0 0 1 -24 -291 )">
    <path d="M 24 291  L 81 291  L 81 348  L 24 348  L 24 291  " fill-rule="nonzero" fill="#cccccc" stroke="none" />
    <path d="M 28 295  L 77 295  L 77 344  L 28 344  L 28 295  " fill-rule="nonzero" fill="#ffffff" stroke="none" />
    <path d="M 57.915 308.1  C 55.521 308.1  53.64 306.21900000000005  53.64 303.82500000000005  C 53.64 301.43100000000004  55.521 299.55  57.915 299.55  C 60.309 299.55  62.19 301.43100000000004  62.19 303.82500000000005  C 62.19 306.21900000000005  60.309 308.1  57.915 308.1  " fill-rule="nonzero" fill="#cccccc" stroke="none" />
    <path d="M 30 343  L 30 317.7  L 41.5 306.2  L 57.599999999999994 315.4  L 66.80000000000001 313.1  L 76 315.4  L 76 343  L 30 343  " fill-rule="nonzero" fill="#169bd5" stroke="none" />
  </g>
</svg>