<?xml version="1.0" encoding="utf-8"?>
<svg version="1.1" xmlns:xlink="http://www.w3.org/1999/xlink" width="19px" height="18px" xmlns="http://www.w3.org/2000/svg">
  <g transform="matrix(1 0 0 1 -8 -12 )">
    <path d="M 1.9237500000000003 7.384615384615384  C 2.0710000000000006 4.938461538461538  3.36775 2.7969230769230773  5.301 1.4584615384615385  L 3.9425000000000003 0.13846153846153839  C 1.66725 1.8230769230769228  0.16624999999999981 4.426153846153846  0.023749999999999914 7.384615384615384  L 1.9237500000000003 7.384615384615384  Z M 13.703750000000001 1.453846153846154  C 15.632250000000003 2.7969230769230773  16.929000000000002 4.938461538461538  17.07625 7.384615384615384  L 18.97625 7.384615384615384  C 18.833750000000002 4.426153846153846  17.33275 1.8230769230769228  15.057500000000001 0.1384615384615388  L 13.703750000000001 1.453846153846154  Z M 15.200000000000001 12.461538461538462  L 15.200000000000001 7.846153846153847  C 15.200000000000001 5.007692307692308  13.646749999999999 2.6400000000000006  10.924999999999999 2.012307692307692  L 10.924999999999999 1.3846153846153846  C 10.924999999999999 0.6184615384615384  10.288499999999999 0  9.5 0  C 8.711500000000001 0  8.075 0.6184615384615384  8.075 1.3846153846153846  L 8.075 2.012307692307692  C 5.35325 2.6399999999999997  3.8000000000000003 5.007692307692308  3.8000000000000003 7.846153846153847  L 3.8000000000000003 12.461538461538462  L 1.9000000000000001 14.307692307692307  L 1.9000000000000001 15  L 17.1 15  L 17.1 14.307692307692307  L 15.200000000000001 12.461538461538462  Z M 7.599999999999998 16.153846153846153  C 7.599999999999998 17.173846153846153  8.450249999999997 18  9.5 18  C 9.633000000000001 18  9.76125 17.986153846153847  9.88475 17.963076923076922  C 10.50225 17.838461538461537  11.0105 17.423076923076923  11.252749999999999 16.873846153846156  C 11.34775 16.652307692307694  11.399999999999997 16.412307692307692  11.399999999999997 16.153846153846153  L 7.599999999999998 16.153846153846153  Z " fill-rule="nonzero" fill="#ffffff" stroke="none" transform="matrix(1 0 0 1 8 12 )" />
  </g>
</svg>