<?xml version="1.0" encoding="utf-8"?>
<svg version="1.1" xmlns:xlink="http://www.w3.org/1999/xlink" width="21px" height="20px" xmlns="http://www.w3.org/2000/svg">
  <g transform="matrix(1 0 0 1 -7 -11 )">
    <path d="M 2.1262500000000006 8.205128205128204  C 2.2890000000000006 5.487179487179486  3.72225 3.107692307692308  5.859000000000001 1.6205128205128205  L 4.3575 0.15384615384615374  C 1.8427499999999999 2.0256410256410255  0.1837499999999998 4.917948717948718  0.026249999999999905 8.205128205128204  L 2.1262500000000006 8.205128205128204  Z M 15.146250000000002 1.6153846153846154  C 17.27775 3.107692307692308  18.711 5.487179487179486  18.87375 8.205128205128204  L 20.97375 8.205128205128204  C 20.816250000000004 4.917948717948718  19.15725 2.0256410256410255  16.642500000000002 0.15384615384615422  L 15.146250000000002 1.6153846153846154  Z M 16.8 13.846153846153847  L 16.8 8.717948717948719  C 16.8 5.564102564102564  15.08325 2.933333333333334  12.075 2.2358974358974355  L 12.075 1.5384615384615385  C 12.075 0.6871794871794872  11.3715 0  10.5 0  C 9.6285 0  8.924999999999999 0.6871794871794872  8.924999999999999 1.5384615384615385  L 8.924999999999999 2.2358974358974355  C 5.91675 2.9333333333333327  4.2 5.564102564102564  4.2 8.717948717948719  L 4.2 13.846153846153847  L 2.1 15.897435897435896  L 2.1 17  L 18.900000000000002 17  L 18.900000000000002 15.897435897435896  L 16.8 13.846153846153847  Z M 8.399999999999999 17.94871794871795  C 8.399999999999999 19.08205128205128  9.339749999999997 20  10.5 20  C 10.647 20  10.78875 19.984615384615385  10.92525 19.95897435897436  C 11.60775 19.820512820512818  12.169500000000001 19.358974358974358  12.437249999999999 18.74871794871795  C 12.54225 18.502564102564104  12.599999999999998 18.235897435897435  12.599999999999998 17.94871794871795  L 8.399999999999999 17.94871794871795  Z " fill-rule="nonzero" fill="#333333" stroke="none" transform="matrix(1 0 0 1 7 11 )" />
  </g>
</svg>