<?xml version="1.0" encoding="utf-8"?>
<svg version="1.1" xmlns:xlink="http://www.w3.org/1999/xlink" width="16px" height="20px" xmlns="http://www.w3.org/2000/svg">
  <g transform="matrix(1 0 0 1 -9 -11 )">
    <path d="M 6 17.94871794871795  C 6 19.08205128205128  6.895 20  8 20  C 9.105 20  10 19.08205128205128  10 17.94871794871795  L 6 17.94871794871795  Z M 16 15.897435897435896  L 14 13.846153846153847  L 14 8.717948717948719  C 14 5.564102564102564  12.364999999999998 2.933333333333334  9.5 2.2358974358974355  L 9.5 1.5384615384615385  C 9.5 0.6871794871794872  8.83 0  8 0  C 7.17 0  6.5 0.6871794871794872  6.5 1.5384615384615385  L 6.5 2.2358974358974355  C 3.635 2.9333333333333327  2 5.564102564102564  2 8.717948717948719  L 2 13.846153846153847  L 0 15.897435897435896  L 0 17  L 16 17  L 16 15.897435897435896  Z M 12 8.717948717948719  L 12 14.871794871794872  L 4 14.871794871794872  L 4 8.717948717948719  C 4 6.16923076923077  5.515000000000001 4.102564102564102  8 4.102564102564102  C 10.485 4.102564102564102  12 6.16923076923077  12 8.717948717948719  Z " fill-rule="nonzero" fill="#ffffff" stroke="none" transform="matrix(1 0 0 1 9 11 )" />
  </g>
</svg>