<?xml version="1.0" encoding="utf-8"?>
<svg version="1.1" xmlns:xlink="http://www.w3.org/1999/xlink" width="1002px" height="223px" xmlns="http://www.w3.org/2000/svg">
  <g transform="matrix(1 0 0 1 -390 -240 )">
    <path d="M 391 244  A 3 3 0 0 1 394 241 L 1388 241  A 3 3 0 0 1 1391 244 L 1391 459  A 3 3 0 0 1 1388 462 L 394 462  A 3 3 0 0 1 391 459 L 391 244  Z " fill-rule="nonzero" fill="#ffffff" stroke="none" fill-opacity="0" />
    <path d="M 390.5 244  A 3.5 3.5 0 0 1 394 240.5 L 1388 240.5  A 3.5 3.5 0 0 1 1391.5 244 L 1391.5 459  A 3.5 3.5 0 0 1 1388 462.5 L 394 462.5  A 3.5 3.5 0 0 1 390.5 459 L 390.5 244  Z " stroke-width="1" stroke-dasharray="9,4" stroke="#aaaaaa" fill="none" stroke-dashoffset="0.5" />
  </g>
</svg>