<?xml version="1.0" encoding="utf-8"?>
<svg version="1.1" xmlns:xlink="http://www.w3.org/1999/xlink" width="12px" height="16px" xmlns="http://www.w3.org/2000/svg">
  <g transform="matrix(1 0 0 1 -1043 -172 )">
    <path d="M 1.49249999999995 16  L 6.582451699279204 15.999995230853102  C 6.209045155475678 15.253464980463747  6 14.40523864779675  6 13.5  C 6 10.419999999999987  8.419999999999959 8  11.5 8  C 11.66874327989683 8  11.835505509618997 8.007263850640385  12 8.021470490814522  L 12 4.800000000000011  L 7.5 0  L 1.5 0  C 0.6712499999999864 0  0.007500000000050022 0.7160000000000082  0 1.5999999999999943  L 0 14.400000000000006  C 0 15.283999999999992  0.66375000000005 16  1.49249999999995 16  Z M 6.75 5.599999999999994  L 6.75 1.1999999999999886  L 10.875 5.599999999999994  L 6.75 5.599999999999994  Z " fill-rule="nonzero" fill="#ffffff" stroke="none" transform="matrix(1 0 0 1 1043 172 )" />
  </g>
</svg>