<?xml version="1.0" encoding="utf-8"?>
<svg version="1.1" xmlns:xlink="http://www.w3.org/1999/xlink" width="205px" height="217px" xmlns="http://www.w3.org/2000/svg">
  <defs>
    <mask fill="white" id="clip19">
      <path d="M 0 52.970168385224724  L 0 52.000000009935206  L 0 0  L 125 0  L 125 52  L 185 52  L 185 197  L 0 197  L 0 52.970168385224724  Z " fill-rule="evenodd" />
    </mask>
    <filter x="-19px" y="-18px" width="205px" height="217px" filterUnits="userSpaceOnUse" id="filter20">
      <feOffset dx="0" dy="2" in="SourceAlpha" result="shadowOffsetInner" />
      <feGaussianBlur stdDeviation="5" in="shadowOffsetInner" result="shadowGaussian" />
      <feComposite in2="shadowGaussian" operator="atop" in="SourceAlpha" result="shadowComposite" />
      <feColorMatrix type="matrix" values="0 0 0 0 0  0 0 0 0 0  0 0 0 0 0  0 0 0 0.14509803921568626 0  " in="shadowComposite" />
    </filter>
    <g id="widget21">
      <path d="M 0 52.970168385224724  L 0 52.000000009935206  L 0 0  L 125 0  L 125 52  L 185 52  L 185 197  L 0 197  L 0 52.970168385224724  Z " fill-rule="nonzero" fill="#ffffff" stroke="none" transform="matrix(1 0 0 1 -9 -10 )" />
      <path d="M 0 52.970168385224724  L 0 52.000000009935206  L 0 0  L 125 0  L 125 52  L 185 52  L 185 197  L 0 197  L 0 52.970168385224724  Z " stroke-width="2" stroke="#cccccc" fill="none" transform="matrix(1 0 0 1 -9 -10 )" mask="url(#clip19)" />
    </g>
  </defs>
  <g transform="matrix(1 0 0 1 19 18 )">
    <use xlink:href="#widget21" filter="url(#filter20)" />
    <use xlink:href="#widget21" />
  </g>
</svg>