<?xml version="1.0" encoding="utf-8"?>
<svg version="1.1" xmlns:xlink="http://www.w3.org/1999/xlink" width="6px" height="8px" xmlns="http://www.w3.org/2000/svg">
  <g transform="matrix(1 0 0 1 -1035 -181 )">
    <path d="M 5.025000000000034 8  C 5.549999999999983 8  6 7.520000000000005  6 7.039999999999997  L 6 4.2399999999999975  C 6 3.6799999999999953  5.549999999999983 3.2  5.099999999999966 3.2  L 5.099999999999966 2  C 5.099999999999966 0.8799999999999955  4.049999999999983 0  3 0  C 1.950000000000017 0  0.9000000000000341 0.8799999999999955  0.9000000000000341 2  L 0.9000000000000341 3.2  C 0.45000000000001705 3.2  0 3.6799999999999953  0 4.160000000000002  L 0 6.960000000000003  C 0 7.520000000000005  0.45000000000001705 8  0.9000000000000341 8  L 5.025000000000034 8  Z M 1.875 2  C 1.875 1.3600000000000023  2.400000000000034 0.9600000000000023  3 0.9600000000000023  C 3.599999999999966 0.9600000000000023  4.125 1.3600000000000023  4.125 2  L 4.125 3.2  L 1.875 3.2  L 1.875 2  Z " fill-rule="nonzero" fill="#ffffff" stroke="none" transform="matrix(1 0 0 1 1035 181 )" />
  </g>
</svg>