<?xml version="1.0" encoding="utf-8"?>
<svg version="1.1" xmlns:xlink="http://www.w3.org/1999/xlink" width="13px" height="13px" viewBox="410 522  13 13" xmlns="http://www.w3.org/2000/svg">
  <path d="M 410.5 525  A 2.5 2.5 0 0 1 413 522.5 L 420 522.5  A 2.5 2.5 0 0 1 422.5 525 L 422.5 532  A 2.5 2.5 0 0 1 420 534.5 L 413 534.5  A 2.5 2.5 0 0 1 410.5 532 L 410.5 525  Z " fill-rule="nonzero" fill="#f0f0f0" stroke="none" />
  <path d="M 410.5 525  A 2.5 2.5 0 0 1 413 522.5 L 420 522.5  A 2.5 2.5 0 0 1 422.5 525 L 422.5 532  A 2.5 2.5 0 0 1 420 534.5 L 413 534.5  A 2.5 2.5 0 0 1 410.5 532 L 410.5 525  Z " stroke-width="1" stroke="#cccccc" fill="none" />
</svg>