<?xml version="1.0" encoding="utf-8"?>
<svg version="1.1" xmlns:xlink="http://www.w3.org/1999/xlink" width="13px" height="13px" viewBox="410 422  13 13" xmlns="http://www.w3.org/2000/svg">
  <path d="M 410.5 425  A 2.5 2.5 0 0 1 413 422.5 L 420 422.5  A 2.5 2.5 0 0 1 422.5 425 L 422.5 432  A 2.5 2.5 0 0 1 420 434.5 L 413 434.5  A 2.5 2.5 0 0 1 410.5 432 L 410.5 425  Z " fill-rule="nonzero" fill="#f0f0f0" stroke="none" />
  <path d="M 410.5 425  A 2.5 2.5 0 0 1 413 422.5 L 420 422.5  A 2.5 2.5 0 0 1 422.5 425 L 422.5 432  A 2.5 2.5 0 0 1 420 434.5 L 413 434.5  A 2.5 2.5 0 0 1 410.5 432 L 410.5 425  Z " stroke-width="1" stroke="#cccccc" fill="none" />
  <path d="M 412.7857142857143 428.5  L 415.57142857142856 431.2857142857143  L 420.2142857142857 424.7857142857143  " stroke-width="2.7857142857142856" stroke="#cccccc" fill="none" />
</svg>