<?xml version="1.0" encoding="utf-8"?>
<svg version="1.1" xmlns:xlink="http://www.w3.org/1999/xlink" width="13px" height="13px" viewBox="20 5  13 13" xmlns="http://www.w3.org/2000/svg">
  <path d="M 20.5 8  A 2.5 2.5 0 0 1 23 5.5 L 30 5.5  A 2.5 2.5 0 0 1 32.5 8 L 32.5 15  A 2.5 2.5 0 0 1 30 17.5 L 23 17.5  A 2.5 2.5 0 0 1 20.5 15 L 20.5 8  Z " fill-rule="nonzero" fill="#f0f0f0" stroke="none" />
  <path d="M 20.5 8  A 2.5 2.5 0 0 1 23 5.5 L 30 5.5  A 2.5 2.5 0 0 1 32.5 8 L 32.5 15  A 2.5 2.5 0 0 1 30 17.5 L 23 17.5  A 2.5 2.5 0 0 1 20.5 15 L 20.5 8  Z " stroke-width="1" stroke="#cccccc" fill="none" />
  <path d="M 22.785714285714285 11.5  L 25.571428571428573 14.285714285714286  L 30.214285714285715 7.785714285714286  " stroke-width="2.7857142857142856" stroke="#cccccc" fill="none" />
</svg>