<?xml version="1.0" encoding="utf-8"?>
<svg version="1.1" xmlns:xlink="http://www.w3.org/1999/xlink" width="13px" height="13px" viewBox="220 352  13 13" xmlns="http://www.w3.org/2000/svg">
  <path d="M 220.5 355  A 2.5 2.5 0 0 1 223 352.5 L 230 352.5  A 2.5 2.5 0 0 1 232.5 355 L 232.5 362  A 2.5 2.5 0 0 1 230 364.5 L 223 364.5  A 2.5 2.5 0 0 1 220.5 362 L 220.5 355  Z " fill-rule="nonzero" fill="#f0f0f0" stroke="none" />
  <path d="M 220.5 355  A 2.5 2.5 0 0 1 223 352.5 L 230 352.5  A 2.5 2.5 0 0 1 232.5 355 L 232.5 362  A 2.5 2.5 0 0 1 230 364.5 L 223 364.5  A 2.5 2.5 0 0 1 220.5 362 L 220.5 355  Z " stroke-width="1" stroke="#cccccc" fill="none" />
</svg>