<?xml version="1.0" encoding="utf-8"?>
<svg version="1.1" xmlns:xlink="http://www.w3.org/1999/xlink" width="12px" height="6px" xmlns="http://www.w3.org/2000/svg">
  <g transform="matrix(1 0 0 1 -338 -18 )">
    <path d="M 11.77734375 0.19791666666666696  C 11.92578125 0.32986111111110983  12 0.4861111111111096  12 0.666666666666667  C 12 0.8472222222222217  11.92578125 1.0034722222222214  11.77734375 1.135416666666667  L 6.52734375 5.802083333333333  C 6.37890625 5.934027777777776  6.203125 6  6 6  C 5.796875000000001 6  5.621093750000001 5.934027777777776  5.47265625 5.802083333333333  L 0.22265625 1.135416666666667  C 0.07421875 1.0034722222222214  0 0.8472222222222217  0 0.666666666666667  C 0 0.4861111111111096  0.07421875 0.32986111111110983  0.22265625 0.19791666666666696  C 0.37109375 0.06597222222222143  0.546875 0  0.75 0  L 11.25 0  C 11.453125 0  11.62890625 0.06597222222222143  11.77734375 0.19791666666666696  Z " fill-rule="nonzero" fill="#000000" stroke="none" transform="matrix(1 0 0 1 338 18 )" />
  </g>
</svg>