<?xml version="1.0" encoding="utf-8"?>
<svg version="1.1" xmlns:xlink="http://www.w3.org/1999/xlink" width="20px" height="17px" xmlns="http://www.w3.org/2000/svg">
  <g transform="matrix(1 0 0 1 -108 -99 )">
    <path d="M 19.20673076923077 3.88778409090909  C 19.735576923076923 4.41903409090909  20 5.05492424242424  20 5.795454545454546  L 20 14.295454545454547  C 20 15.035984848484848  19.735576923076923 15.671875  19.20673076923077 16.203125  C 18.677884615384613 16.734375  18.044871794871796 17  17.307692307692307 17  L 2.692307692307692 17  C 1.9551282051282053 17  1.322115384615385 16.734375  0.7932692307692307 16.203125  C 0.2644230769230769 15.671875  0 15.035984848484848  0 14.295454545454547  L 0 2.704545454545454  C 0 1.9640151515151487  0.2644230769230769 1.328125  0.7932692307692307 0.796875  C 1.322115384615385 0.265625  1.9551282051282053 0  2.692307692307692 0  L 6.538461538461538 0  C 7.275641025641026 0  7.908653846153846 0.265625  8.4375 0.796875  C 8.966346153846153 1.328125  9.230769230769232 1.9640151515151487  9.230769230769232 2.704545454545454  L 9.230769230769232 3.09090909090909  L 17.307692307692307 3.09090909090909  C 18.044871794871796 3.09090909090909  18.677884615384613 3.35653409090909  19.20673076923077 3.88778409090909  Z " fill-rule="nonzero" fill="#ffffff" stroke="none" transform="matrix(1 0 0 1 108 99 )" />
  </g>
</svg>