<?xml version="1.0" encoding="utf-8"?>
<svg version="1.1" xmlns:xlink="http://www.w3.org/1999/xlink" width="20px" height="18px" xmlns="http://www.w3.org/2000/svg">
  <g transform="matrix(1 0 0 1 -36 -99 )">
    <path d="M 7.880208333333333 8.18329326923077  C 8.46701388888889 7.573918269230768  9.173611111111112 7.269230769230767  10 7.269230769230769  C 10.826388888888891 7.269230769230767  11.532986111111112 7.573918269230768  12.119791666666666 8.18329326923077  C 12.706597222222225 8.792668269230768  13 9.526442307692307  13 10.384615384615383  C 13 11.24278846153846  12.706597222222225 11.976562499999998  12.119791666666666 12.5859375  C 11.532986111111112 13.1953125  10.826388888888891 13.5  10 13.5  C 9.173611111111112 13.5  8.46701388888889 13.1953125  7.880208333333333 12.5859375  C 7.293402777777779 11.976562499999998  7 11.24278846153846  7 10.384615384615383  C 7 9.526442307692307  7.293402777777779 8.792668269230768  7.880208333333333 8.18329326923077  Z M 15 2.769230769230769  L 17.333333333333336 2.769230769230769  C 18.069444444444446 2.769230769230769  18.69791666666667 3.0396634615384612  19.21875 3.5805288461538467  C 19.739583333333336 4.121394230769231  20.000000000000004 4.774038461538461  20 5.538461538461538  L 20 15.23076923076923  C 20.000000000000004 15.995192307692308  19.739583333333336 16.64783653846154  19.21875 17.188701923076923  C 18.69791666666667 17.729567307692307  18.069444444444446 18  17.333333333333336 18  L 2.6666666666666665 18  C 1.9305555555555556 18  1.3020833333333335 17.729567307692307  0.78125 17.188701923076923  C 0.2604166666666667 16.64783653846154  0 15.995192307692308  0 15.23076923076923  L 0 5.538461538461538  C 0 4.774038461538461  0.2604166666666667 4.121394230769231  0.78125 3.5805288461538467  C 1.3020833333333335 3.0396634615384612  1.9305555555555556 2.769230769230769  2.6666666666666665 2.769230769230769  L 5 2.769230769230769  L 5.53125 1.2980769230769225  C 5.663194444444445 0.9447115384615381  5.904513888888889 0.6400240384615374  6.255208333333333 0.38401442307692246  C 6.605902777777779 0.12800480769230949  6.965277777777779 0  7.333333333333333 0  L 12.666666666666666 0  C 13.034722222222223 0  13.394097222222223 0.12800480769230949  13.744791666666668 0.38401442307692246  C 14.095486111111112 0.6400240384615374  14.336805555555557 0.9447115384615381  14.46875 1.2980769230769225  L 15 2.769230769230769  Z M 6.703125 13.80829326923077  C 7.616319444444445 14.756610576923078  8.715277777777779 15.23076923076923  10 15.23076923076923  C 11.284722222222223 15.23076923076923  12.383680555555557 14.756610576923078  13.296875 13.80829326923077  C 14.210069444444445 12.85997596153846  14.666666666666666 11.71875  14.666666666666666 10.384615384615383  C 14.666666666666666 9.05048076923077  14.210069444444445 7.909254807692307  13.296875 6.9609375  C 12.383680555555557 6.012620192307692  11.284722222222223 5.538461538461538  10 5.538461538461538  C 8.715277777777779 5.538461538461538  7.616319444444445 6.012620192307692  6.703125 6.9609375  C 5.789930555555555 7.909254807692307  5.333333333333333 9.05048076923077  5.333333333333333 10.384615384615383  C 5.333333333333333 11.71875  5.789930555555555 12.85997596153846  6.703125 13.80829326923077  Z " fill-rule="nonzero" fill="#ffffff" stroke="none" transform="matrix(1 0 0 1 36 99 )" />
  </g>
</svg>