<?xml version="1.0" encoding="utf-8"?>
<svg version="1.1" xmlns:xlink="http://www.w3.org/1999/xlink" width="13px" height="13px" viewBox="325 113  13 13" xmlns="http://www.w3.org/2000/svg">
  <path d="M 325.5 116  A 2.5 2.5 0 0 1 328 113.5 L 335 113.5  A 2.5 2.5 0 0 1 337.5 116 L 337.5 123  A 2.5 2.5 0 0 1 335 125.5 L 328 125.5  A 2.5 2.5 0 0 1 325.5 123 L 325.5 116  Z " fill-rule="nonzero" fill="#f0f0f0" stroke="none" />
  <path d="M 325.5 116  A 2.5 2.5 0 0 1 328 113.5 L 335 113.5  A 2.5 2.5 0 0 1 337.5 116 L 337.5 123  A 2.5 2.5 0 0 1 335 125.5 L 328 125.5  A 2.5 2.5 0 0 1 325.5 123 L 325.5 116  Z " stroke-width="1" stroke="#cccccc" fill="none" />
  <path d="M 327.7857142857143 119.5  L 330.57142857142856 122.28571428571428  L 335.2142857142857 115.78571428571429  " stroke-width="2.7857142857142856" stroke="#cccccc" fill="none" />
</svg>