<?xml version="1.0" encoding="utf-8"?>
<svg version="1.1" xmlns:xlink="http://www.w3.org/1999/xlink" width="13px" height="13px" viewBox="235 113  13 13" xmlns="http://www.w3.org/2000/svg">
  <path d="M 235.5 116  A 2.5 2.5 0 0 1 238 113.5 L 245 113.5  A 2.5 2.5 0 0 1 247.5 116 L 247.5 123  A 2.5 2.5 0 0 1 245 125.5 L 238 125.5  A 2.5 2.5 0 0 1 235.5 123 L 235.5 116  Z " fill-rule="nonzero" fill="#f0f0f0" stroke="none" />
  <path d="M 235.5 116  A 2.5 2.5 0 0 1 238 113.5 L 245 113.5  A 2.5 2.5 0 0 1 247.5 116 L 247.5 123  A 2.5 2.5 0 0 1 245 125.5 L 238 125.5  A 2.5 2.5 0 0 1 235.5 123 L 235.5 116  Z " stroke-width="1" stroke="#cccccc" fill="none" />
  <path d="M 237.78571428571428 119.5  L 240.57142857142858 122.28571428571428  L 245.21428571428572 115.78571428571429  " stroke-width="2.7857142857142856" stroke="#cccccc" fill="none" />
</svg>