<?xml version="1.0" encoding="utf-8"?>
<svg version="1.1" xmlns:xlink="http://www.w3.org/1999/xlink" width="38px" height="44px" xmlns="http://www.w3.org/2000/svg">
  <g transform="matrix(1 0 0 1 -1651 -381 )">
    <path d="M 28 4  L 28 0  L 4 0  C 1.79 0  0 1.79  0 4  L 0 32  L 4 32  L 4 4  L 28 4  Z M 38 12  C 38 9.79  36.21 8  34 8  L 12 8  C 9.79 8  8 9.79  8 12  L 8 40  C 8 42.21  9.79 44  12 44  L 34 44  C 36.21 44  38 42.21  38 40  L 38 12  Z M 34 12  L 34 40  L 12 40  L 12 12  L 34 12  Z " fill-rule="nonzero" fill="#000000" stroke="none" transform="matrix(1 0 0 1 1651 381 )" />
  </g>
</svg>